<mxfile host="app.diagrams.net" modified="2024-05-09T14:05:37.178Z" agent="Mozilla/5.0 (Windows NT 10.0; Win64; x64) AppleWebKit/537.36 (KHTML, like Gecko) Chrome/122.0.0.0 Safari/537.36" etag="8uhmdUWYGRu7drEzqoc4" version="24.3.1" type="github">
  <diagram id="C5RBs43oDa-KdzZeNtuy" name="Page-1">
    <mxGraphModel dx="1702" dy="464" grid="1" gridSize="10" guides="1" tooltips="1" connect="1" arrows="1" fold="1" page="1" pageScale="1" pageWidth="827" pageHeight="1169" math="0" shadow="0">
      <root>
        <mxCell id="WIyWlLk6GJQsqaUBKTNV-0" />
        <mxCell id="WIyWlLk6GJQsqaUBKTNV-1" parent="WIyWlLk6GJQsqaUBKTNV-0" />
        <mxCell id="DbVtMnXNO2fvEbYJATaU-0" value="ofertaAcademica" style="shape=folder;fontStyle=1;spacingTop=10;tabWidth=40;tabHeight=14;tabPosition=left;html=1;whiteSpace=wrap;" vertex="1" parent="WIyWlLk6GJQsqaUBKTNV-1">
          <mxGeometry x="-190" y="630" width="410" height="620" as="geometry" />
        </mxCell>
        <mxCell id="DbVtMnXNO2fvEbYJATaU-1" value="Persona" style="swimlane;fontStyle=3;align=center;verticalAlign=top;childLayout=stackLayout;horizontal=1;startSize=26;horizontalStack=0;resizeParent=1;resizeLast=0;collapsible=1;marginBottom=0;rounded=0;shadow=0;strokeWidth=1;" vertex="1" parent="WIyWlLk6GJQsqaUBKTNV-1">
          <mxGeometry x="740" y="720" width="160" height="120" as="geometry">
            <mxRectangle x="230" y="140" width="160" height="26" as="alternateBounds" />
          </mxGeometry>
        </mxCell>
        <mxCell id="DbVtMnXNO2fvEbYJATaU-2" value="# nombre: String&#xa;# apellido: String&#xa;# dni: String&#xa;# / edad: Int&#xa;# fechaNacimiento: Date &#xa;" style="text;align=left;verticalAlign=top;spacingLeft=4;spacingRight=4;overflow=hidden;rotatable=0;points=[[0,0.5],[1,0.5]];portConstraint=eastwest;" vertex="1" parent="DbVtMnXNO2fvEbYJATaU-1">
          <mxGeometry y="26" width="160" height="94" as="geometry" />
        </mxCell>
        <mxCell id="DbVtMnXNO2fvEbYJATaU-3" value="Estudiante" style="swimlane;fontStyle=3;align=center;verticalAlign=top;childLayout=stackLayout;horizontal=1;startSize=26;horizontalStack=0;resizeParent=1;resizeLast=0;collapsible=1;marginBottom=0;rounded=0;shadow=0;strokeWidth=1;" vertex="1" parent="WIyWlLk6GJQsqaUBKTNV-1">
          <mxGeometry x="740" y="1112" width="160" height="138" as="geometry">
            <mxRectangle x="130" y="380" width="160" height="26" as="alternateBounds" />
          </mxGeometry>
        </mxCell>
        <mxCell id="DbVtMnXNO2fvEbYJATaU-5" value="" style="endArrow=block;endSize=10;endFill=0;shadow=0;strokeWidth=1;rounded=0;curved=0;edgeStyle=elbowEdgeStyle;elbow=vertical;" edge="1" parent="WIyWlLk6GJQsqaUBKTNV-1" source="DbVtMnXNO2fvEbYJATaU-3" target="DbVtMnXNO2fvEbYJATaU-1">
          <mxGeometry width="160" relative="1" as="geometry">
            <mxPoint x="200" y="203" as="sourcePoint" />
            <mxPoint x="200" y="203" as="targetPoint" />
          </mxGeometry>
        </mxCell>
        <mxCell id="DbVtMnXNO2fvEbYJATaU-6" value="Docente" style="swimlane;fontStyle=3;align=center;verticalAlign=top;childLayout=stackLayout;horizontal=1;startSize=26;horizontalStack=0;resizeParent=1;resizeLast=0;collapsible=1;marginBottom=0;rounded=0;shadow=0;strokeWidth=1;" vertex="1" parent="WIyWlLk6GJQsqaUBKTNV-1">
          <mxGeometry x="370" y="900" width="160" height="70" as="geometry">
            <mxRectangle x="340" y="380" width="170" height="26" as="alternateBounds" />
          </mxGeometry>
        </mxCell>
        <mxCell id="DbVtMnXNO2fvEbYJATaU-7" value="Salary" style="text;align=left;verticalAlign=top;spacingLeft=4;spacingRight=4;overflow=hidden;rotatable=0;points=[[0,0.5],[1,0.5]];portConstraint=eastwest;" vertex="1" parent="DbVtMnXNO2fvEbYJATaU-6">
          <mxGeometry y="26" width="160" height="26" as="geometry" />
        </mxCell>
        <mxCell id="DbVtMnXNO2fvEbYJATaU-8" value="Expediente" style="swimlane;fontStyle=3;align=center;verticalAlign=top;childLayout=stackLayout;horizontal=1;startSize=26;horizontalStack=0;resizeParent=1;resizeLast=0;collapsible=1;marginBottom=0;rounded=0;shadow=0;strokeWidth=1;" vertex="1" parent="WIyWlLk6GJQsqaUBKTNV-1">
          <mxGeometry x="300" y="1180" width="190" height="90" as="geometry">
            <mxRectangle x="340" y="380" width="170" height="26" as="alternateBounds" />
          </mxGeometry>
        </mxCell>
        <mxCell id="DbVtMnXNO2fvEbYJATaU-9" value="- fecha: Date&#xa;- numero: int&#xa;- estado: boolean = true (inactivo)&#xa;- fichaSocioeconomica: " style="text;align=left;verticalAlign=top;spacingLeft=4;spacingRight=4;overflow=hidden;rotatable=0;points=[[0,0.5],[1,0.5]];portConstraint=eastwest;" vertex="1" parent="DbVtMnXNO2fvEbYJATaU-8">
          <mxGeometry y="26" width="190" height="64" as="geometry" />
        </mxCell>
        <mxCell id="DbVtMnXNO2fvEbYJATaU-10" value="1 expediente" style="text;html=1;align=center;verticalAlign=middle;resizable=0;points=[];autosize=1;strokeColor=none;fillColor=none;" vertex="1" parent="WIyWlLk6GJQsqaUBKTNV-1">
          <mxGeometry x="485" y="1210" width="90" height="30" as="geometry" />
        </mxCell>
        <mxCell id="DbVtMnXNO2fvEbYJATaU-11" value="1 estudiante" style="text;html=1;align=center;verticalAlign=middle;resizable=0;points=[];autosize=1;strokeColor=none;fillColor=none;" vertex="1" parent="WIyWlLk6GJQsqaUBKTNV-1">
          <mxGeometry x="660" y="1180" width="90" height="30" as="geometry" />
        </mxCell>
        <mxCell id="DbVtMnXNO2fvEbYJATaU-12" value="mallaCurricular" style="shape=folder;fontStyle=1;spacingTop=10;tabWidth=40;tabHeight=14;tabPosition=left;html=1;whiteSpace=wrap;" vertex="1" parent="WIyWlLk6GJQsqaUBKTNV-1">
          <mxGeometry x="-750" y="630" width="500" height="620" as="geometry" />
        </mxCell>
        <mxCell id="DbVtMnXNO2fvEbYJATaU-13" value="Facultad" style="swimlane;fontStyle=3;align=center;verticalAlign=top;childLayout=stackLayout;horizontal=1;startSize=26;horizontalStack=0;resizeParent=1;resizeLast=0;collapsible=1;marginBottom=0;rounded=0;shadow=0;strokeWidth=1;" vertex="1" parent="WIyWlLk6GJQsqaUBKTNV-1">
          <mxGeometry x="-743" y="650" width="160" height="70" as="geometry">
            <mxRectangle x="340" y="380" width="170" height="26" as="alternateBounds" />
          </mxGeometry>
        </mxCell>
        <mxCell id="DbVtMnXNO2fvEbYJATaU-14" value="- nombre: String&#xa;- siglas: String" style="text;align=left;verticalAlign=top;spacingLeft=4;spacingRight=4;overflow=hidden;rotatable=0;points=[[0,0.5],[1,0.5]];portConstraint=eastwest;" vertex="1" parent="DbVtMnXNO2fvEbYJATaU-13">
          <mxGeometry y="26" width="160" height="34" as="geometry" />
        </mxCell>
        <mxCell id="DbVtMnXNO2fvEbYJATaU-15" value="Carrera" style="swimlane;fontStyle=3;align=center;verticalAlign=top;childLayout=stackLayout;horizontal=1;startSize=26;horizontalStack=0;resizeParent=1;resizeLast=0;collapsible=1;marginBottom=0;rounded=0;shadow=0;strokeWidth=1;" vertex="1" parent="WIyWlLk6GJQsqaUBKTNV-1">
          <mxGeometry x="-743" y="790" width="160" height="80" as="geometry">
            <mxRectangle x="340" y="380" width="170" height="26" as="alternateBounds" />
          </mxGeometry>
        </mxCell>
        <mxCell id="DbVtMnXNO2fvEbYJATaU-16" value="- nombre: String&#xa;- titulo: String&#xa;- código: String" style="text;align=left;verticalAlign=top;spacingLeft=4;spacingRight=4;overflow=hidden;rotatable=0;points=[[0,0.5],[1,0.5]];portConstraint=eastwest;" vertex="1" parent="DbVtMnXNO2fvEbYJATaU-15">
          <mxGeometry y="26" width="160" height="44" as="geometry" />
        </mxCell>
        <mxCell id="DbVtMnXNO2fvEbYJATaU-17" value="&lt;&lt;enumeration&gt;&gt;&#xa;Modalidad" style="swimlane;fontStyle=3;align=center;verticalAlign=top;childLayout=stackLayout;horizontal=1;startSize=40;horizontalStack=0;resizeParent=1;resizeLast=0;collapsible=1;marginBottom=0;rounded=0;shadow=0;strokeWidth=1;" vertex="1" parent="WIyWlLk6GJQsqaUBKTNV-1">
          <mxGeometry x="-423" y="650" width="160" height="110" as="geometry">
            <mxRectangle x="340" y="380" width="170" height="26" as="alternateBounds" />
          </mxGeometry>
        </mxCell>
        <mxCell id="DbVtMnXNO2fvEbYJATaU-18" value="+ PRESENCIAL&#xa;+ EN_LINEA&#xa;+ DISTANCIA&#xa;+ HIBRIDO" style="text;align=left;verticalAlign=top;spacingLeft=4;spacingRight=4;overflow=hidden;rotatable=0;points=[[0,0.5],[1,0.5]];portConstraint=eastwest;" vertex="1" parent="DbVtMnXNO2fvEbYJATaU-17">
          <mxGeometry y="40" width="160" height="70" as="geometry" />
        </mxCell>
        <mxCell id="DbVtMnXNO2fvEbYJATaU-19" value="" style="endArrow=open;endFill=1;endSize=12;html=1;rounded=0;exitX=0.998;exitY=0.168;exitDx=0;exitDy=0;entryX=0.013;entryY=0.117;entryDx=0;entryDy=0;entryPerimeter=0;exitPerimeter=0;" edge="1" parent="WIyWlLk6GJQsqaUBKTNV-1" source="DbVtMnXNO2fvEbYJATaU-16" target="DbVtMnXNO2fvEbYJATaU-18">
          <mxGeometry width="160" relative="1" as="geometry">
            <mxPoint x="-393" y="748" as="sourcePoint" />
            <mxPoint x="-233" y="748" as="targetPoint" />
            <Array as="points">
              <mxPoint x="-530" y="823" />
              <mxPoint x="-530" y="698" />
            </Array>
          </mxGeometry>
        </mxCell>
        <mxCell id="DbVtMnXNO2fvEbYJATaU-20" value="" style="endArrow=none;html=1;edgeStyle=orthogonalEdgeStyle;rounded=0;" edge="1" parent="WIyWlLk6GJQsqaUBKTNV-1">
          <mxGeometry relative="1" as="geometry">
            <mxPoint x="-670" y="720" as="sourcePoint" />
            <mxPoint x="-670" y="790" as="targetPoint" />
            <Array as="points">
              <mxPoint x="-670" y="790" />
            </Array>
          </mxGeometry>
        </mxCell>
        <mxCell id="DbVtMnXNO2fvEbYJATaU-21" value="1 facultad" style="edgeLabel;resizable=0;html=1;align=left;verticalAlign=bottom;" connectable="0" vertex="1" parent="DbVtMnXNO2fvEbYJATaU-20">
          <mxGeometry x="-1" relative="1" as="geometry">
            <mxPoint x="-50" y="20" as="offset" />
          </mxGeometry>
        </mxCell>
        <mxCell id="DbVtMnXNO2fvEbYJATaU-22" value="1..* carreraList" style="edgeLabel;resizable=0;html=1;align=right;verticalAlign=bottom;" connectable="0" vertex="1" parent="DbVtMnXNO2fvEbYJATaU-20">
          <mxGeometry x="1" relative="1" as="geometry">
            <mxPoint x="80" as="offset" />
          </mxGeometry>
        </mxCell>
        <mxCell id="DbVtMnXNO2fvEbYJATaU-23" value="modalidad" style="text;html=1;align=center;verticalAlign=middle;resizable=0;points=[];autosize=1;strokeColor=none;fillColor=none;" vertex="1" parent="WIyWlLk6GJQsqaUBKTNV-1">
          <mxGeometry x="-530" y="650" width="80" height="30" as="geometry" />
        </mxCell>
        <mxCell id="DbVtMnXNO2fvEbYJATaU-24" value="Ciclo" style="swimlane;fontStyle=3;align=center;verticalAlign=top;childLayout=stackLayout;horizontal=1;startSize=26;horizontalStack=0;resizeParent=1;resizeLast=0;collapsible=1;marginBottom=0;rounded=0;shadow=0;strokeWidth=1;" vertex="1" parent="WIyWlLk6GJQsqaUBKTNV-1">
          <mxGeometry x="-743" y="940" width="160" height="50" as="geometry">
            <mxRectangle x="340" y="380" width="170" height="26" as="alternateBounds" />
          </mxGeometry>
        </mxCell>
        <mxCell id="DbVtMnXNO2fvEbYJATaU-25" value="- numero: int" style="text;align=left;verticalAlign=top;spacingLeft=4;spacingRight=4;overflow=hidden;rotatable=0;points=[[0,0.5],[1,0.5]];portConstraint=eastwest;" vertex="1" parent="DbVtMnXNO2fvEbYJATaU-24">
          <mxGeometry y="26" width="160" height="24" as="geometry" />
        </mxCell>
        <mxCell id="DbVtMnXNO2fvEbYJATaU-26" value="" style="endArrow=diamondThin;endFill=0;endSize=24;html=1;rounded=0;exitX=0.5;exitY=0;exitDx=0;exitDy=0;entryX=0.5;entryY=1;entryDx=0;entryDy=0;" edge="1" parent="WIyWlLk6GJQsqaUBKTNV-1" source="DbVtMnXNO2fvEbYJATaU-24" target="DbVtMnXNO2fvEbYJATaU-15">
          <mxGeometry width="160" relative="1" as="geometry">
            <mxPoint x="-493" y="568" as="sourcePoint" />
            <mxPoint x="-353" y="568" as="targetPoint" />
          </mxGeometry>
        </mxCell>
        <mxCell id="DbVtMnXNO2fvEbYJATaU-27" value="1..* cicloList" style="edgeLabel;resizable=0;html=1;align=right;verticalAlign=bottom;" connectable="0" vertex="1" parent="WIyWlLk6GJQsqaUBKTNV-1">
          <mxGeometry x="-600.0008155873516" y="940.0037382157877" as="geometry" />
        </mxCell>
        <mxCell id="DbVtMnXNO2fvEbYJATaU-28" value="1 carrera" style="edgeLabel;resizable=0;html=1;align=right;verticalAlign=bottom;" connectable="0" vertex="1" parent="WIyWlLk6GJQsqaUBKTNV-1">
          <mxGeometry x="-680.0008155873516" y="890.0037382157877" as="geometry" />
        </mxCell>
        <mxCell id="DbVtMnXNO2fvEbYJATaU-29" value="Asignatura" style="swimlane;fontStyle=3;align=center;verticalAlign=top;childLayout=stackLayout;horizontal=1;startSize=26;horizontalStack=0;resizeParent=1;resizeLast=0;collapsible=1;marginBottom=0;rounded=0;shadow=0;strokeWidth=1;" vertex="1" parent="WIyWlLk6GJQsqaUBKTNV-1">
          <mxGeometry x="-743" y="1090" width="160" height="120" as="geometry">
            <mxRectangle x="340" y="380" width="170" height="26" as="alternateBounds" />
          </mxGeometry>
        </mxCell>
        <mxCell id="DbVtMnXNO2fvEbYJATaU-30" value="- nombre: String&#xa;- codigo: String&#xa;- acd: int&#xa;- ape: int&#xa;- aa: int&#xa;- / th: int" style="text;align=left;verticalAlign=top;spacingLeft=4;spacingRight=4;overflow=hidden;rotatable=0;points=[[0,0.5],[1,0.5]];portConstraint=eastwest;" vertex="1" parent="DbVtMnXNO2fvEbYJATaU-29">
          <mxGeometry y="26" width="160" height="94" as="geometry" />
        </mxCell>
        <mxCell id="DbVtMnXNO2fvEbYJATaU-31" value="" style="endArrow=none;html=1;edgeStyle=orthogonalEdgeStyle;rounded=0;exitX=0.505;exitY=0.986;exitDx=0;exitDy=0;entryX=0.5;entryY=0;entryDx=0;entryDy=0;exitPerimeter=0;" edge="1" parent="WIyWlLk6GJQsqaUBKTNV-1" source="DbVtMnXNO2fvEbYJATaU-25" target="DbVtMnXNO2fvEbYJATaU-29">
          <mxGeometry relative="1" as="geometry">
            <mxPoint x="-583" y="960" as="sourcePoint" />
            <mxPoint x="-430" y="960" as="targetPoint" />
            <Array as="points">
              <mxPoint x="-662" y="1070" />
              <mxPoint x="-662" y="1090" />
            </Array>
          </mxGeometry>
        </mxCell>
        <mxCell id="DbVtMnXNO2fvEbYJATaU-32" value="1 ciclo" style="edgeLabel;resizable=0;html=1;align=left;verticalAlign=bottom;" connectable="0" vertex="1" parent="DbVtMnXNO2fvEbYJATaU-31">
          <mxGeometry x="-1" relative="1" as="geometry">
            <mxPoint x="-38" y="20" as="offset" />
          </mxGeometry>
        </mxCell>
        <mxCell id="DbVtMnXNO2fvEbYJATaU-33" value="1..* asignaturaList" style="edgeLabel;resizable=0;html=1;align=right;verticalAlign=bottom;" connectable="0" vertex="1" parent="DbVtMnXNO2fvEbYJATaU-31">
          <mxGeometry x="1" relative="1" as="geometry">
            <mxPoint x="93" as="offset" />
          </mxGeometry>
        </mxCell>
        <mxCell id="DbVtMnXNO2fvEbYJATaU-34" value="PeriodoAcademico" style="swimlane;fontStyle=3;align=center;verticalAlign=top;childLayout=stackLayout;horizontal=1;startSize=26;horizontalStack=0;resizeParent=1;resizeLast=0;collapsible=1;marginBottom=0;rounded=0;shadow=0;strokeWidth=1;" vertex="1" parent="WIyWlLk6GJQsqaUBKTNV-1">
          <mxGeometry y="660" width="160" height="80" as="geometry">
            <mxRectangle x="340" y="380" width="170" height="26" as="alternateBounds" />
          </mxGeometry>
        </mxCell>
        <mxCell id="DbVtMnXNO2fvEbYJATaU-35" value="- nombre: String&#xa;- fechaInicio: Date&#xa;- fechaFin: Date" style="text;align=left;verticalAlign=top;spacingLeft=4;spacingRight=4;overflow=hidden;rotatable=0;points=[[0,0.5],[1,0.5]];portConstraint=eastwest;" vertex="1" parent="DbVtMnXNO2fvEbYJATaU-34">
          <mxGeometry y="26" width="160" height="54" as="geometry" />
        </mxCell>
        <mxCell id="DbVtMnXNO2fvEbYJATaU-36" value="OfertaCarrera" style="swimlane;fontStyle=3;align=center;verticalAlign=top;childLayout=stackLayout;horizontal=1;startSize=26;horizontalStack=0;resizeParent=1;resizeLast=0;collapsible=1;marginBottom=0;rounded=0;shadow=0;strokeWidth=1;" vertex="1" parent="WIyWlLk6GJQsqaUBKTNV-1">
          <mxGeometry x="5" y="810" width="160" height="80" as="geometry">
            <mxRectangle x="340" y="380" width="170" height="26" as="alternateBounds" />
          </mxGeometry>
        </mxCell>
        <mxCell id="DbVtMnXNO2fvEbYJATaU-37" value="" style="endArrow=none;html=1;edgeStyle=orthogonalEdgeStyle;rounded=0;" edge="1" parent="WIyWlLk6GJQsqaUBKTNV-1">
          <mxGeometry relative="1" as="geometry">
            <mxPoint x="79" y="740" as="sourcePoint" />
            <mxPoint x="79" y="810" as="targetPoint" />
            <Array as="points">
              <mxPoint x="79" y="810" />
            </Array>
          </mxGeometry>
        </mxCell>
        <mxCell id="DbVtMnXNO2fvEbYJATaU-38" value="1 periodoAcademico" style="edgeLabel;resizable=0;html=1;align=left;verticalAlign=bottom;" connectable="0" vertex="1" parent="WIyWlLk6GJQsqaUBKTNV-1">
          <mxGeometry x="-30" y="760" as="geometry" />
        </mxCell>
        <mxCell id="DbVtMnXNO2fvEbYJATaU-39" value="1..* ofertaCarreraList" style="edgeLabel;resizable=0;html=1;align=left;verticalAlign=bottom;" connectable="0" vertex="1" parent="WIyWlLk6GJQsqaUBKTNV-1">
          <mxGeometry x="80" y="810" as="geometry" />
        </mxCell>
        <mxCell id="DbVtMnXNO2fvEbYJATaU-40" value="1 carrera" style="edgeLabel;resizable=0;html=1;align=right;verticalAlign=bottom;" connectable="0" vertex="1" parent="WIyWlLk6GJQsqaUBKTNV-1">
          <mxGeometry x="-530.0008155873516" y="840.0037382157877" as="geometry" />
        </mxCell>
        <mxCell id="DbVtMnXNO2fvEbYJATaU-41" value="" style="endArrow=none;html=1;edgeStyle=orthogonalEdgeStyle;rounded=0;exitX=1;exitY=0.25;exitDx=0;exitDy=0;" edge="1" parent="WIyWlLk6GJQsqaUBKTNV-1">
          <mxGeometry relative="1" as="geometry">
            <mxPoint x="-583" y="840" as="sourcePoint" />
            <mxPoint x="5" y="840" as="targetPoint" />
            <Array as="points">
              <mxPoint x="5" y="840" />
            </Array>
          </mxGeometry>
        </mxCell>
        <mxCell id="DbVtMnXNO2fvEbYJATaU-42" value="0..* ofertaCarreraList" style="edgeLabel;resizable=0;html=1;align=left;verticalAlign=bottom;" connectable="0" vertex="1" parent="WIyWlLk6GJQsqaUBKTNV-1">
          <mxGeometry x="-110" y="840" as="geometry" />
        </mxCell>
        <mxCell id="DbVtMnXNO2fvEbYJATaU-43" value="OfertaCiclo" style="swimlane;fontStyle=3;align=center;verticalAlign=top;childLayout=stackLayout;horizontal=1;startSize=26;horizontalStack=0;resizeParent=1;resizeLast=0;collapsible=1;marginBottom=0;rounded=0;shadow=0;strokeWidth=1;" vertex="1" parent="WIyWlLk6GJQsqaUBKTNV-1">
          <mxGeometry x="5" y="960" width="160" height="80" as="geometry">
            <mxRectangle x="340" y="380" width="170" height="26" as="alternateBounds" />
          </mxGeometry>
        </mxCell>
        <mxCell id="DbVtMnXNO2fvEbYJATaU-44" value="" style="endArrow=none;html=1;edgeStyle=orthogonalEdgeStyle;rounded=0;exitX=1;exitY=0.25;exitDx=0;exitDy=0;" edge="1" parent="WIyWlLk6GJQsqaUBKTNV-1">
          <mxGeometry relative="1" as="geometry">
            <mxPoint x="-583" y="980" as="sourcePoint" />
            <mxPoint x="5" y="980" as="targetPoint" />
            <Array as="points">
              <mxPoint x="5" y="980" />
            </Array>
          </mxGeometry>
        </mxCell>
        <mxCell id="DbVtMnXNO2fvEbYJATaU-45" value="" style="endArrow=none;html=1;edgeStyle=orthogonalEdgeStyle;rounded=0;" edge="1" parent="WIyWlLk6GJQsqaUBKTNV-1">
          <mxGeometry relative="1" as="geometry">
            <mxPoint x="80" y="890" as="sourcePoint" />
            <mxPoint x="80" y="930" as="targetPoint" />
            <Array as="points">
              <mxPoint x="80" y="960" />
            </Array>
          </mxGeometry>
        </mxCell>
        <mxCell id="DbVtMnXNO2fvEbYJATaU-46" value="1 ciclo" style="edgeLabel;resizable=0;html=1;align=left;verticalAlign=bottom;" connectable="0" vertex="1" parent="WIyWlLk6GJQsqaUBKTNV-1">
          <mxGeometry x="-583" y="980.0039999999998" as="geometry" />
        </mxCell>
        <mxCell id="DbVtMnXNO2fvEbYJATaU-47" value="0..* ofertaCicloList" style="edgeLabel;resizable=0;html=1;align=left;verticalAlign=bottom;" connectable="0" vertex="1" parent="WIyWlLk6GJQsqaUBKTNV-1">
          <mxGeometry x="-100" y="970" as="geometry" />
        </mxCell>
        <mxCell id="DbVtMnXNO2fvEbYJATaU-48" value="1 ofertaCarrera" style="edgeLabel;resizable=0;html=1;align=left;verticalAlign=bottom;" connectable="0" vertex="1" parent="WIyWlLk6GJQsqaUBKTNV-1">
          <mxGeometry y="910" as="geometry" />
        </mxCell>
        <mxCell id="DbVtMnXNO2fvEbYJATaU-49" value="0..* ofertaCicloList" style="edgeLabel;resizable=0;html=1;align=left;verticalAlign=bottom;" connectable="0" vertex="1" parent="WIyWlLk6GJQsqaUBKTNV-1">
          <mxGeometry x="85" y="960" as="geometry" />
        </mxCell>
        <mxCell id="DbVtMnXNO2fvEbYJATaU-50" value="OfertaAsignatura" style="swimlane;fontStyle=3;align=center;verticalAlign=top;childLayout=stackLayout;horizontal=1;startSize=26;horizontalStack=0;resizeParent=1;resizeLast=0;collapsible=1;marginBottom=0;rounded=0;shadow=0;strokeWidth=1;" vertex="1" parent="WIyWlLk6GJQsqaUBKTNV-1">
          <mxGeometry x="5" y="1080" width="160" height="80" as="geometry">
            <mxRectangle x="340" y="380" width="170" height="26" as="alternateBounds" />
          </mxGeometry>
        </mxCell>
        <mxCell id="DbVtMnXNO2fvEbYJATaU-51" value="" style="endArrow=none;html=1;edgeStyle=orthogonalEdgeStyle;rounded=0;exitX=1;exitY=0.25;exitDx=0;exitDy=0;" edge="1" parent="WIyWlLk6GJQsqaUBKTNV-1">
          <mxGeometry relative="1" as="geometry">
            <mxPoint x="-583.06" y="1150" as="sourcePoint" />
            <mxPoint x="5" y="1150" as="targetPoint" />
            <Array as="points">
              <mxPoint x="5" y="1150" />
            </Array>
          </mxGeometry>
        </mxCell>
        <mxCell id="DbVtMnXNO2fvEbYJATaU-52" value="" style="endArrow=none;html=1;edgeStyle=orthogonalEdgeStyle;rounded=0;" edge="1" parent="WIyWlLk6GJQsqaUBKTNV-1">
          <mxGeometry relative="1" as="geometry">
            <mxPoint x="80" y="1040" as="sourcePoint" />
            <mxPoint x="81" y="1080" as="targetPoint" />
            <Array as="points">
              <mxPoint x="80" y="1080" />
              <mxPoint x="81" y="1080" />
            </Array>
          </mxGeometry>
        </mxCell>
        <mxCell id="DbVtMnXNO2fvEbYJATaU-53" value="0..* ofertaAsignaturaList" style="edgeLabel;resizable=0;html=1;align=left;verticalAlign=bottom;" connectable="0" vertex="1" parent="WIyWlLk6GJQsqaUBKTNV-1">
          <mxGeometry x="85" y="1080" as="geometry" />
        </mxCell>
        <mxCell id="DbVtMnXNO2fvEbYJATaU-54" value="0..* ofertaAsignaturaList" style="edgeLabel;resizable=0;html=1;align=left;verticalAlign=bottom;" connectable="0" vertex="1" parent="WIyWlLk6GJQsqaUBKTNV-1">
          <mxGeometry x="-120" y="1150" as="geometry" />
        </mxCell>
        <mxCell id="DbVtMnXNO2fvEbYJATaU-55" value="1 asignatura" style="edgeLabel;resizable=0;html=1;align=right;verticalAlign=bottom;" connectable="0" vertex="1" parent="WIyWlLk6GJQsqaUBKTNV-1">
          <mxGeometry x="-520" y="1150.0039930846006" as="geometry" />
        </mxCell>
        <mxCell id="DbVtMnXNO2fvEbYJATaU-56" value="1 ofertaCiclo" style="edgeLabel;resizable=0;html=1;align=left;verticalAlign=bottom;" connectable="0" vertex="1" parent="WIyWlLk6GJQsqaUBKTNV-1">
          <mxGeometry x="15" y="1060" as="geometry" />
        </mxCell>
        <mxCell id="DbVtMnXNO2fvEbYJATaU-57" value="AsignacionAsignaturas" style="swimlane;fontStyle=3;align=center;verticalAlign=top;childLayout=stackLayout;horizontal=1;startSize=26;horizontalStack=0;resizeParent=1;resizeLast=0;collapsible=1;marginBottom=0;rounded=0;shadow=0;strokeWidth=1;" vertex="1" parent="WIyWlLk6GJQsqaUBKTNV-1">
          <mxGeometry x="370" y="1080" width="160" height="80" as="geometry">
            <mxRectangle x="340" y="380" width="170" height="26" as="alternateBounds" />
          </mxGeometry>
        </mxCell>
        <mxCell id="DbVtMnXNO2fvEbYJATaU-58" value="" style="endArrow=none;html=1;edgeStyle=orthogonalEdgeStyle;rounded=0;exitX=1;exitY=0.5;exitDx=0;exitDy=0;entryX=0;entryY=0.5;entryDx=0;entryDy=0;" edge="1" parent="WIyWlLk6GJQsqaUBKTNV-1" source="DbVtMnXNO2fvEbYJATaU-50">
          <mxGeometry relative="1" as="geometry">
            <mxPoint x="280" y="1099.98" as="sourcePoint" />
            <mxPoint x="370" y="1119" as="targetPoint" />
            <Array as="points">
              <mxPoint x="370" y="1120" />
            </Array>
          </mxGeometry>
        </mxCell>
        <mxCell id="DbVtMnXNO2fvEbYJATaU-59" value="1 ofertaAsignatura" style="edgeLabel;resizable=0;html=1;align=left;verticalAlign=bottom;" connectable="0" vertex="1" parent="DbVtMnXNO2fvEbYJATaU-58">
          <mxGeometry x="-1" relative="1" as="geometry">
            <mxPoint x="5" as="offset" />
          </mxGeometry>
        </mxCell>
        <mxCell id="DbVtMnXNO2fvEbYJATaU-60" value="" style="endArrow=none;html=1;edgeStyle=orthogonalEdgeStyle;rounded=0;entryX=0.5;entryY=0;entryDx=0;entryDy=0;" edge="1" parent="WIyWlLk6GJQsqaUBKTNV-1" target="DbVtMnXNO2fvEbYJATaU-57">
          <mxGeometry relative="1" as="geometry">
            <mxPoint x="449.37" y="970" as="sourcePoint" />
            <mxPoint x="449.37" y="1040" as="targetPoint" />
            <Array as="points">
              <mxPoint x="449" y="1040" />
            </Array>
          </mxGeometry>
        </mxCell>
        <mxCell id="DbVtMnXNO2fvEbYJATaU-61" value="1 docente" style="edgeLabel;resizable=0;html=1;align=left;verticalAlign=bottom;" connectable="0" vertex="1" parent="WIyWlLk6GJQsqaUBKTNV-1">
          <mxGeometry x="390" y="990" as="geometry" />
        </mxCell>
        <mxCell id="DbVtMnXNO2fvEbYJATaU-62" value="MatriculaAsignatura" style="swimlane;fontStyle=3;align=center;verticalAlign=top;childLayout=stackLayout;horizontal=1;startSize=26;horizontalStack=0;resizeParent=1;resizeLast=0;collapsible=1;marginBottom=0;rounded=0;shadow=0;strokeWidth=1;" vertex="1" parent="WIyWlLk6GJQsqaUBKTNV-1">
          <mxGeometry x="-250" y="1300" width="160" height="80" as="geometry">
            <mxRectangle x="340" y="380" width="170" height="26" as="alternateBounds" />
          </mxGeometry>
        </mxCell>
        <mxCell id="DbVtMnXNO2fvEbYJATaU-63" value="- calificacion: float " style="text;align=left;verticalAlign=top;spacingLeft=4;spacingRight=4;overflow=hidden;rotatable=0;points=[[0,0.5],[1,0.5]];portConstraint=eastwest;" vertex="1" parent="DbVtMnXNO2fvEbYJATaU-62">
          <mxGeometry y="26" width="160" height="26" as="geometry" />
        </mxCell>
        <mxCell id="DbVtMnXNO2fvEbYJATaU-64" value="Pago" style="swimlane;fontStyle=3;align=center;verticalAlign=top;childLayout=stackLayout;horizontal=1;startSize=26;horizontalStack=0;resizeParent=1;resizeLast=0;collapsible=1;marginBottom=0;rounded=0;shadow=0;strokeWidth=1;" vertex="1" parent="WIyWlLk6GJQsqaUBKTNV-1">
          <mxGeometry x="320" y="1322.5" width="220" height="90" as="geometry">
            <mxRectangle x="340" y="380" width="170" height="26" as="alternateBounds" />
          </mxGeometry>
        </mxCell>
        <mxCell id="DbVtMnXNO2fvEbYJATaU-65" value="- estado: boolean = true (pagada)&#xa;- costo: float&#xa;- fechaPago: Date&#xa;- referencia: boolean" style="text;align=left;verticalAlign=top;spacingLeft=4;spacingRight=4;overflow=hidden;rotatable=0;points=[[0,0.5],[1,0.5]];portConstraint=eastwest;" vertex="1" parent="DbVtMnXNO2fvEbYJATaU-64">
          <mxGeometry y="26" width="220" height="64" as="geometry" />
        </mxCell>
        <mxCell id="DbVtMnXNO2fvEbYJATaU-66" value="" style="endArrow=diamondThin;endFill=0;endSize=24;html=1;rounded=0;exitX=1;exitY=0.063;exitDx=0;exitDy=0;exitPerimeter=0;entryX=0.881;entryY=1.059;entryDx=0;entryDy=0;entryPerimeter=0;" edge="1" parent="WIyWlLk6GJQsqaUBKTNV-1" source="DbVtMnXNO2fvEbYJATaU-9" target="DbVtMnXNO2fvEbYJATaU-11">
          <mxGeometry width="160" relative="1" as="geometry">
            <mxPoint x="490" y="1220" as="sourcePoint" />
            <mxPoint x="620" y="1218" as="targetPoint" />
          </mxGeometry>
        </mxCell>
        <mxCell id="DbVtMnXNO2fvEbYJATaU-67" value="" style="endArrow=block;endSize=16;endFill=0;html=1;rounded=0;exitX=0.5;exitY=0;exitDx=0;exitDy=0;entryX=0;entryY=0.5;entryDx=0;entryDy=0;" edge="1" parent="WIyWlLk6GJQsqaUBKTNV-1" source="DbVtMnXNO2fvEbYJATaU-6" target="DbVtMnXNO2fvEbYJATaU-2">
          <mxGeometry width="160" relative="1" as="geometry">
            <mxPoint x="440" y="796.47" as="sourcePoint" />
            <mxPoint x="600" y="796.47" as="targetPoint" />
            <Array as="points">
              <mxPoint x="450" y="793" />
            </Array>
          </mxGeometry>
        </mxCell>
        <mxCell id="DbVtMnXNO2fvEbYJATaU-68" value="" style="endArrow=diamondThin;endFill=0;endSize=24;html=1;rounded=0;exitX=1;exitY=0.5;exitDx=0;exitDy=0;entryX=0.25;entryY=0;entryDx=0;entryDy=0;" edge="1" parent="WIyWlLk6GJQsqaUBKTNV-1" source="DbVtMnXNO2fvEbYJATaU-7" target="DbVtMnXNO2fvEbYJATaU-3">
          <mxGeometry width="160" relative="1" as="geometry">
            <mxPoint x="730" y="950" as="sourcePoint" />
            <mxPoint x="860" y="950" as="targetPoint" />
            <Array as="points">
              <mxPoint x="780" y="940" />
            </Array>
          </mxGeometry>
        </mxCell>
        <mxCell id="DbVtMnXNO2fvEbYJATaU-69" value="1..* estudianteList" style="text;html=1;align=center;verticalAlign=middle;resizable=0;points=[];autosize=1;strokeColor=none;fillColor=none;" vertex="1" parent="WIyWlLk6GJQsqaUBKTNV-1">
          <mxGeometry x="660" y="1090" width="120" height="30" as="geometry" />
        </mxCell>
        <mxCell id="DbVtMnXNO2fvEbYJATaU-70" value="1..* docenteList" style="edgeLabel;resizable=0;html=1;align=left;verticalAlign=bottom;" connectable="0" vertex="1" parent="WIyWlLk6GJQsqaUBKTNV-1">
          <mxGeometry x="530" y="940" as="geometry" />
        </mxCell>
        <mxCell id="DbVtMnXNO2fvEbYJATaU-71" value="Horario" style="swimlane;fontStyle=3;align=center;verticalAlign=top;childLayout=stackLayout;horizontal=1;startSize=26;horizontalStack=0;resizeParent=1;resizeLast=0;collapsible=1;marginBottom=0;rounded=0;shadow=0;strokeWidth=1;" vertex="1" parent="WIyWlLk6GJQsqaUBKTNV-1">
          <mxGeometry x="-250" y="1560" width="160" height="80" as="geometry">
            <mxRectangle x="340" y="380" width="170" height="26" as="alternateBounds" />
          </mxGeometry>
        </mxCell>
        <mxCell id="DbVtMnXNO2fvEbYJATaU-72" value="- nota: float" style="text;align=left;verticalAlign=top;spacingLeft=4;spacingRight=4;overflow=hidden;rotatable=0;points=[[0,0.5],[1,0.5]];portConstraint=eastwest;" vertex="1" parent="DbVtMnXNO2fvEbYJATaU-71">
          <mxGeometry y="26" width="160" height="26" as="geometry" />
        </mxCell>
        <mxCell id="DbVtMnXNO2fvEbYJATaU-73" value="" style="line;strokeWidth=1;fillColor=none;align=left;verticalAlign=middle;spacingTop=-1;spacingLeft=3;spacingRight=3;rotatable=0;labelPosition=right;points=[];portConstraint=eastwest;strokeColor=inherit;" vertex="1" parent="WIyWlLk6GJQsqaUBKTNV-1">
          <mxGeometry x="530" y="1142" width="210" height="8" as="geometry" />
        </mxCell>
        <mxCell id="DbVtMnXNO2fvEbYJATaU-74" value="1..* estudianteList" style="text;html=1;align=center;verticalAlign=middle;resizable=0;points=[];autosize=1;strokeColor=none;fillColor=none;" vertex="1" parent="WIyWlLk6GJQsqaUBKTNV-1">
          <mxGeometry x="630" y="1120" width="120" height="30" as="geometry" />
        </mxCell>
        <mxCell id="DbVtMnXNO2fvEbYJATaU-75" value="1..* paraleloList" style="edgeLabel;resizable=0;html=1;align=right;verticalAlign=bottom;" connectable="0" vertex="1" parent="WIyWlLk6GJQsqaUBKTNV-1">
          <mxGeometry x="610" y="1168.9966666666667" as="geometry" />
        </mxCell>
        <mxCell id="DbVtMnXNO2fvEbYJATaU-76" value="" style="endArrow=block;dashed=1;endFill=0;endSize=12;html=1;rounded=0;exitX=1;exitY=0.5;exitDx=0;exitDy=0;" edge="1" parent="WIyWlLk6GJQsqaUBKTNV-1" source="DbVtMnXNO2fvEbYJATaU-65">
          <mxGeometry width="160" relative="1" as="geometry">
            <mxPoint x="580" y="1240" as="sourcePoint" />
            <mxPoint x="740" y="1240" as="targetPoint" />
            <Array as="points">
              <mxPoint x="600" y="1381" />
              <mxPoint x="600" y="1240" />
            </Array>
          </mxGeometry>
        </mxCell>
        <mxCell id="DbVtMnXNO2fvEbYJATaU-77" value="1 pago" style="text;html=1;align=center;verticalAlign=middle;resizable=0;points=[];autosize=1;strokeColor=none;fillColor=none;" vertex="1" parent="WIyWlLk6GJQsqaUBKTNV-1">
          <mxGeometry x="545" y="1382.5" width="60" height="30" as="geometry" />
        </mxCell>
        <mxCell id="DbVtMnXNO2fvEbYJATaU-78" value="1 estudiante" style="text;html=1;align=center;verticalAlign=middle;resizable=0;points=[];autosize=1;strokeColor=none;fillColor=none;" vertex="1" parent="WIyWlLk6GJQsqaUBKTNV-1">
          <mxGeometry x="660" y="1210" width="90" height="30" as="geometry" />
        </mxCell>
        <mxCell id="DbVtMnXNO2fvEbYJATaU-79" value="Matricula" style="swimlane;fontStyle=3;align=center;verticalAlign=top;childLayout=stackLayout;horizontal=1;startSize=26;horizontalStack=0;resizeParent=1;resizeLast=0;collapsible=1;marginBottom=0;rounded=0;shadow=0;strokeWidth=1;" vertex="1" parent="WIyWlLk6GJQsqaUBKTNV-1">
          <mxGeometry y="1300" width="160" height="80" as="geometry">
            <mxRectangle x="340" y="380" width="170" height="26" as="alternateBounds" />
          </mxGeometry>
        </mxCell>
        <mxCell id="DbVtMnXNO2fvEbYJATaU-80" value="" style="endArrow=none;html=1;edgeStyle=orthogonalEdgeStyle;rounded=0;exitX=0;exitY=0.5;exitDx=0;exitDy=0;" edge="1" parent="WIyWlLk6GJQsqaUBKTNV-1" source="DbVtMnXNO2fvEbYJATaU-9">
          <mxGeometry relative="1" as="geometry">
            <mxPoint x="270" y="1212.5" as="sourcePoint" />
            <mxPoint x="160" y="1339" as="targetPoint" />
            <Array as="points">
              <mxPoint x="300" y="1230" />
              <mxPoint x="271" y="1230" />
              <mxPoint x="271" y="1339" />
            </Array>
          </mxGeometry>
        </mxCell>
        <mxCell id="DbVtMnXNO2fvEbYJATaU-81" value="0..* matriculaList" style="edgeLabel;resizable=0;html=1;align=right;verticalAlign=bottom;" connectable="0" vertex="1" parent="WIyWlLk6GJQsqaUBKTNV-1">
          <mxGeometry x="250" y="1359.9966666666667" as="geometry" />
        </mxCell>
        <mxCell id="DbVtMnXNO2fvEbYJATaU-82" value="1 expediente" style="text;html=1;align=center;verticalAlign=middle;resizable=0;points=[];autosize=1;strokeColor=none;fillColor=none;" vertex="1" parent="WIyWlLk6GJQsqaUBKTNV-1">
          <mxGeometry x="180" y="1290" width="90" height="30" as="geometry" />
        </mxCell>
        <mxCell id="DbVtMnXNO2fvEbYJATaU-83" value="" style="endArrow=none;html=1;edgeStyle=orthogonalEdgeStyle;rounded=0;exitX=0;exitY=0.75;exitDx=0;exitDy=0;entryX=0.877;entryY=0.008;entryDx=0;entryDy=0;entryPerimeter=0;" edge="1" parent="WIyWlLk6GJQsqaUBKTNV-1" source="DbVtMnXNO2fvEbYJATaU-57" target="DbVtMnXNO2fvEbYJATaU-79">
          <mxGeometry relative="1" as="geometry">
            <mxPoint x="280" y="1189" as="sourcePoint" />
            <mxPoint x="140" y="1290" as="targetPoint" />
            <Array as="points">
              <mxPoint x="251" y="1140" />
              <mxPoint x="251" y="1290" />
              <mxPoint x="140" y="1290" />
            </Array>
          </mxGeometry>
        </mxCell>
        <mxCell id="DbVtMnXNO2fvEbYJATaU-84" value="1..* matriculaList" style="edgeLabel;resizable=0;html=1;align=right;verticalAlign=bottom;" connectable="0" vertex="1" parent="WIyWlLk6GJQsqaUBKTNV-1">
          <mxGeometry x="200" y="1289.9966666666667" as="geometry" />
        </mxCell>
        <mxCell id="DbVtMnXNO2fvEbYJATaU-85" value="1..* asignacionAsignaturaList" style="edgeLabel;resizable=0;html=1;align=right;verticalAlign=bottom;" connectable="0" vertex="1" parent="WIyWlLk6GJQsqaUBKTNV-1">
          <mxGeometry x="370" y="1159.9966666666667" as="geometry" />
        </mxCell>
        <mxCell id="DbVtMnXNO2fvEbYJATaU-86" value="1..* asignacionAsignaturaList" style="edgeLabel;resizable=0;html=1;align=right;verticalAlign=bottom;" connectable="0" vertex="1" parent="WIyWlLk6GJQsqaUBKTNV-1">
          <mxGeometry x="370" y="1134.9966666666667" as="geometry" />
        </mxCell>
        <mxCell id="DbVtMnXNO2fvEbYJATaU-87" value="1..* asignacionAsignaturaList" style="edgeLabel;resizable=0;html=1;align=right;verticalAlign=bottom;" connectable="0" vertex="1" parent="WIyWlLk6GJQsqaUBKTNV-1">
          <mxGeometry x="600" y="1079.9966666666667" as="geometry" />
        </mxCell>
        <mxCell id="DbVtMnXNO2fvEbYJATaU-88" value="" style="endArrow=none;dashed=1;html=1;rounded=0;exitX=1;exitY=0.5;exitDx=0;exitDy=0;" edge="1" parent="WIyWlLk6GJQsqaUBKTNV-1" source="DbVtMnXNO2fvEbYJATaU-63">
          <mxGeometry width="50" height="50" relative="1" as="geometry">
            <mxPoint x="-80" y="1380" as="sourcePoint" />
            <mxPoint x="250" y="1160" as="targetPoint" />
            <Array as="points">
              <mxPoint x="-60" y="1340" />
              <mxPoint x="-60" y="1260" />
              <mxPoint x="240" y="1260" />
              <mxPoint x="240" y="1160" />
            </Array>
          </mxGeometry>
        </mxCell>
        <mxCell id="DbVtMnXNO2fvEbYJATaU-89" value="" style="endArrow=none;html=1;rounded=0;exitX=0.75;exitY=0;exitDx=0;exitDy=0;entryX=0.75;entryY=1;entryDx=0;entryDy=0;" edge="1" parent="WIyWlLk6GJQsqaUBKTNV-1">
          <mxGeometry width="50" height="50" relative="1" as="geometry">
            <mxPoint x="-170.34" y="1559.9999999999998" as="sourcePoint" />
            <mxPoint x="-170.34" y="1379.9999999999998" as="targetPoint" />
            <Array as="points">
              <mxPoint x="-170.34" y="1470" />
            </Array>
          </mxGeometry>
        </mxCell>
        <mxCell id="DbVtMnXNO2fvEbYJATaU-90" value="1..* horarioList" style="edgeLabel;resizable=0;html=1;align=right;verticalAlign=bottom;" connectable="0" vertex="1" parent="WIyWlLk6GJQsqaUBKTNV-1">
          <mxGeometry x="-180" y="1559.9966666666667" as="geometry" />
        </mxCell>
        <mxCell id="DbVtMnXNO2fvEbYJATaU-91" value="1 matriculaAsignatura" style="edgeLabel;resizable=0;html=1;align=right;verticalAlign=bottom;" connectable="0" vertex="1" parent="WIyWlLk6GJQsqaUBKTNV-1">
          <mxGeometry x="-60" y="1397.4966666666667" as="geometry" />
        </mxCell>
      </root>
    </mxGraphModel>
  </diagram>
</mxfile>
